<mxfile host="app.diagrams.net" modified="2024-06-08T10:42:45.754Z" agent="Mozilla/5.0 (Windows NT 10.0; Win64; x64) AppleWebKit/537.36 (KHTML, like Gecko) Chrome/125.0.0.0 Safari/537.36" etag="YYsiy7ncm5Tv8iswhkfg" version="24.5.2" type="github">
  <diagram name="Page-1" id="XR6keKtAjEU4rGbAM4-8">
    <mxGraphModel dx="1221" dy="618" grid="1" gridSize="10" guides="1" tooltips="1" connect="1" arrows="1" fold="1" page="1" pageScale="1" pageWidth="850" pageHeight="1100" math="0" shadow="0">
      <root>
        <mxCell id="0" />
        <mxCell id="1" parent="0" />
        <mxCell id="TZ2qREYrTcbDeIIGAiYy-16" style="edgeStyle=orthogonalEdgeStyle;rounded=0;orthogonalLoop=1;jettySize=auto;html=1;" edge="1" parent="1" source="TZ2qREYrTcbDeIIGAiYy-1" target="TZ2qREYrTcbDeIIGAiYy-3">
          <mxGeometry relative="1" as="geometry">
            <Array as="points">
              <mxPoint x="210" y="580" />
            </Array>
          </mxGeometry>
        </mxCell>
        <mxCell id="TZ2qREYrTcbDeIIGAiYy-1" value="FAT FS" style="rounded=0;whiteSpace=wrap;html=1;" vertex="1" parent="1">
          <mxGeometry x="100" y="330" width="220" height="80" as="geometry" />
        </mxCell>
        <mxCell id="TZ2qREYrTcbDeIIGAiYy-17" style="edgeStyle=orthogonalEdgeStyle;rounded=0;orthogonalLoop=1;jettySize=auto;html=1;" edge="1" parent="1" source="TZ2qREYrTcbDeIIGAiYy-2" target="TZ2qREYrTcbDeIIGAiYy-3">
          <mxGeometry relative="1" as="geometry" />
        </mxCell>
        <mxCell id="TZ2qREYrTcbDeIIGAiYy-2" value="LittleFS" style="rounded=0;whiteSpace=wrap;html=1;" vertex="1" parent="1">
          <mxGeometry x="470" y="330" width="210" height="80" as="geometry" />
        </mxCell>
        <mxCell id="TZ2qREYrTcbDeIIGAiYy-3" value="" style="pointerEvents=1;shadow=0;dashed=0;html=1;strokeColor=none;fillColor=#4495D1;labelPosition=center;verticalLabelPosition=bottom;verticalAlign=top;align=center;outlineConnect=0;shape=mxgraph.veeam.sd_card;" vertex="1" parent="1">
          <mxGeometry x="310" y="500" width="132" height="140" as="geometry" />
        </mxCell>
        <mxCell id="TZ2qREYrTcbDeIIGAiYy-11" value="POSIX C" style="rounded=0;whiteSpace=wrap;html=1;" vertex="1" parent="1">
          <mxGeometry x="100" y="50" width="180" height="80" as="geometry" />
        </mxCell>
        <mxCell id="TZ2qREYrTcbDeIIGAiYy-12" value="ISO C" style="rounded=0;whiteSpace=wrap;html=1;" vertex="1" parent="1">
          <mxGeometry x="340" y="50" width="190" height="80" as="geometry" />
        </mxCell>
        <mxCell id="TZ2qREYrTcbDeIIGAiYy-14" style="edgeStyle=orthogonalEdgeStyle;rounded=0;orthogonalLoop=1;jettySize=auto;html=1;exitX=0.25;exitY=1;exitDx=0;exitDy=0;" edge="1" parent="1" source="TZ2qREYrTcbDeIIGAiYy-13" target="TZ2qREYrTcbDeIIGAiYy-1">
          <mxGeometry relative="1" as="geometry" />
        </mxCell>
        <mxCell id="TZ2qREYrTcbDeIIGAiYy-15" style="edgeStyle=orthogonalEdgeStyle;rounded=0;orthogonalLoop=1;jettySize=auto;html=1;exitX=0.75;exitY=1;exitDx=0;exitDy=0;entryX=0.5;entryY=0;entryDx=0;entryDy=0;" edge="1" parent="1" source="TZ2qREYrTcbDeIIGAiYy-13" target="TZ2qREYrTcbDeIIGAiYy-2">
          <mxGeometry relative="1" as="geometry" />
        </mxCell>
        <mxCell id="TZ2qREYrTcbDeIIGAiYy-13" value="ZFS" style="rounded=0;whiteSpace=wrap;html=1;" vertex="1" parent="1">
          <mxGeometry x="280" y="210" width="240" height="70" as="geometry" />
        </mxCell>
        <mxCell id="TZ2qREYrTcbDeIIGAiYy-18" style="edgeStyle=orthogonalEdgeStyle;rounded=0;orthogonalLoop=1;jettySize=auto;html=1;entryX=0.115;entryY=0.029;entryDx=0;entryDy=0;entryPerimeter=0;" edge="1" parent="1" source="TZ2qREYrTcbDeIIGAiYy-11" target="TZ2qREYrTcbDeIIGAiYy-13">
          <mxGeometry relative="1" as="geometry" />
        </mxCell>
        <mxCell id="TZ2qREYrTcbDeIIGAiYy-19" style="edgeStyle=orthogonalEdgeStyle;rounded=0;orthogonalLoop=1;jettySize=auto;html=1;exitX=0.5;exitY=1;exitDx=0;exitDy=0;entryX=0.657;entryY=0;entryDx=0;entryDy=0;entryPerimeter=0;" edge="1" parent="1" source="TZ2qREYrTcbDeIIGAiYy-12" target="TZ2qREYrTcbDeIIGAiYy-13">
          <mxGeometry relative="1" as="geometry" />
        </mxCell>
      </root>
    </mxGraphModel>
  </diagram>
</mxfile>
